{"title":"Jaws 1975 720p Brrip.SSloco","uid":11982748,"size":938532811,"categoryP":"video","categoryS":"hd___movies","magnet":"?xt=urn:btih:dac9967103684abf2d638c30f8a4e70073af8d89&amp;dn=Jaws+1975+720p+Brrip.SSloco&amp;tr=udp%3A%2F%2Ftracker.openbittorrent.com%3A80&amp;tr=udp%3A%2F%2Fopen.demonii.com%3A1337&amp;tr=udp%3A%2F%2Ftracker.coppersurfer.tk%3A6969&amp;tr=udp%3A%2F%2Fexodus.desync.com%3A6969","seeders":0,"leechers":0,"uploader":"myhoes14","files":1,"time":1433264700,"description":"Source:Jaws 1975 1080p BDRip H264 AAC- KiNGDOM\n\nMedia Info\n\n\nFormat : MPEG-4\nFormat profile : Base Media\nCodec ID : isom\nFile size : 895 MiB\nDuration : 2h 4mn\nOverall bit rate mode : Variable\nOverall bit rate : 1 009 Kbps\nEncoded date : UTC 2015-05-02 20:37:33\nTagged date : UTC 2015-05-02 20:37:33\n\nVideo\nID : 1\nFormat : AVC\nFormat/Info : Advanced Video Codec\nFormat profile : &lt;a class=&quot;__cf_email__&quot; href=&quot;/cdn-cgi/l/email-protection&quot; data-cfemail=&quot;6c24050b042c2058425d&quot;&gt;[email&amp;#160;protected]&lt;/a&gt;&lt;script data-cfhash='f9e31' type=&quot;text/javascript&quot;&gt;\n/* &lt;![CDATA[ */!function(){try{var t=&quot;currentScript&quot;in document?document.currentScript:function(){for(var t=document.getElementsByTagName(&quot;script&quot;),e=t.length;e--;)if(t[e].getAttribute(&quot;data-cfhash&quot;))return t[e]}();if(t&amp;&amp;t.previousSibling){var e,r,n,i,c=t.previousSibling,a=c.getAttribute(&quot;data-cfemail&quot;);if(a){for(e=&quot;&quot;,r=parseInt(a.substr(0,2),16),n=2;a.length-n;n+=2)i=parseInt(a.substr(n,2),16)^r,e+=String.fromCharCode(i);e=document.createTextNode(e),c.parentNode.replaceChild(e,c)}t.parentNode.removeChild(t);}}catch(u){}}()/* ]]&gt; */&lt;/script&gt;\nFormat settings, CABAC : Yes\nFormat settings, ReFrames : 12 frames\nCodec ID : avc1\nCodec ID/Info : Advanced Video Coding\nDuration : 2h 4mn\nBit rate : 685 Kbps\nMaximum bit rate : 4 892 Kbps\nWidth : 1 280 pixels\nHeight : 544 pixels\nDisplay aspect ratio : 2.35:1\nFrame rate mode : Constant\nFrame rate : 23.976 fps\nColor space : YUV\nChroma subsampling : 4:2:0\nBit depth : 8 bits\nScan type : Progressive\nBits/(Pixel*Frame) : 0.041\nStream size : 608 MiB (68%)\nWriting library : x264 core 146 r2538 121396c\nEncoding settings : cabac=1 / ref=12 / deblock=1:-1:-1 / analyse=0x3:0x133 / me=umh / subme=10 / psy=1 / psy_rd=1.00:0.15 / mixed_ref=1 / me_range=32 / chroma_me=1 / trellis=2 / 8x8dct=1 / cqm=0 / deadzone=21,11 / fast_pskip=1 / chroma_qp_offset=-3 / threads=6 / lookahead_threads=1 / sliced_threads=0 / nr=0 / decimate=1 / interlaced=0 / bluray_compat=0 / constrained_intra=0 / bframes=9 / b_pyramid=2 / b_adapt=2 / b_bias=0 / direct=3 / weightb=1 / open_gop=0 / weightp=2 / keyint=240 / keyint_min=23 / scenecut=40 / intra_refresh=0 / rc_lookahead=140 / rc=2pass / mbtree=1 / bitrate=685 / ratetol=1.0 / qcomp=0.60 / qpmin=0 / qpmax=69 / qpstep=4 / cplxblur=20.0 / qblur=0.5 / vbv_maxrate=62500 / vbv_bufsize=78125 / nal_hrd=none / filler=0 / ip_ratio=1.40 / aq=1:1.00\nEncoded date : UTC 2015-05-02 20:37:33\nTagged date : UTC 2015-05-02 20:38:06\nColor primaries : BT.709\nMatrix coefficients : BT.709\nColor range : Limited\n\nAudio\nID : 2\nFormat : AAC\nFormat/Info : Advanced Audio Codec\nFormat profile : LC\nCodec ID : 40\nDuration : 2h 4mn\nBit rate mode : Variable\nBit rate : 320 Kbps\nMaximum bit rate : 331 Kbps\nChannel(s) : 2 channels\nChannel(s)_Original : 6 channels\nChannel positions : Front: L C R, Side: L R, LFE\nSampling rate : 48.0 KHz\nCompression mode : Lossy\nStream size : 284 MiB (32%)\nLanguage : English\nEncoded date : UTC 2015-05-02 20:37:50\nTagged date : UTC 2015-05-02 20:38:06","torrent":{"xt":"urn:btih:dac9967103684abf2d638c30f8a4e70073af8d89","amp;dn":"Jaws+1975+720p+Brrip.SSloco","amp;tr":["udp%3A%2F%2Ftracker.openbittorrent.com%3A80","udp%3A%2F%2Fopen.demonii.com%3A1337","udp%3A%2F%2Ftracker.coppersurfer.tk%3A6969","udp%3A%2F%2Fexodus.desync.com%3A6969"],"infoHash":"dac9967103684abf2d638c30f8a4e70073af8d89","infoHashBuffer":{"type":"Buffer","data":[218,201,150,113,3,104,74,191,45,99,140,48,248,164,231,0,115,175,141,137]},"announce":[],"urlList":[]}}